<?xml version="1.0" encoding="UTF-8"?>
<!DOCTYPE svg PUBLIC "-//W3C//DTD SVG 1.1//EN" "http://www.w3.org/Graphics/SVG/1.1/DTD/svg11.dtd">
<svg xmlns="http://www.w3.org/2000/svg" version="1.1" width="225px" height="225px" style="shape-rendering:geometricPrecision; text-rendering:geometricPrecision; image-rendering:optimizeQuality; fill-rule:evenodd; clip-rule:evenodd" xmlns:xlink="http://www.w3.org/1999/xlink">
<g><path style="opacity:1" fill="#fefefe" d="M -0.5,-0.5 C 74.5,-0.5 149.5,-0.5 224.5,-0.5C 224.5,74.5 224.5,149.5 224.5,224.5C 149.5,224.5 74.5,224.5 -0.5,224.5C -0.5,149.5 -0.5,74.5 -0.5,-0.5 Z"/></g>
<g><path style="opacity:1" fill="#4577ba" d="M 53.5,43.5 C 92.1681,43.3333 130.835,43.5 169.5,44C 174.573,45.4056 178.073,48.5723 180,53.5C 180.667,82.8333 180.667,112.167 180,141.5C 178.939,144.562 177.106,147.062 174.5,149C 151.588,150.313 128.588,150.98 105.5,151C 95.3556,160.567 85.0223,169.901 74.5,179C 72.2305,179.758 70.0639,179.591 68,178.5C 67.5002,169.506 67.3336,160.506 67.5,151.5C 62.0873,151.771 56.7539,151.271 51.5,150C 47.4034,147.64 44.9034,144.14 44,139.5C 43.3333,110.833 43.3333,82.1667 44,53.5C 44.4709,51.7536 45.1376,50.087 46,48.5C 48.4795,46.6859 50.9795,45.0192 53.5,43.5 Z"/></g>
<g><path style="opacity:1" fill="#5fa1d6" d="M 53.5,52.5 C 92.7392,52.1701 131.906,52.5035 171,53.5C 171.828,82.7385 171.662,111.905 170.5,141C 147.921,142.313 125.255,142.979 102.5,143C 93.6582,150.677 84.9915,158.51 76.5,166.5C 75.5023,158.528 75.169,150.528 75.5,142.5C 68.825,142.666 62.1583,142.5 55.5,142C 54.5838,141.626 53.7504,141.126 53,140.5C 52.1755,111.095 52.3422,81.7615 53.5,52.5 Z"/></g>
<g><path style="opacity:1" fill="#fbfdfd" d="M 107.5,112.5 C 106.2,111.399 105.7,110.066 106,108.5C 115.833,98.6667 125.667,88.8333 135.5,79C 134.833,78.3333 134.167,78.3333 133.5,79C 121.642,87.0926 109.642,94.9259 97.5,102.5C 90.9764,99.0719 84.3097,95.9052 77.5,93C 75.5794,91.7592 75.246,90.2592 76.5,88.5C 99.0673,80.6998 121.734,73.1998 144.5,66C 149.667,64.5 151.5,66.3333 150,71.5C 141.202,90.9262 132.035,110.093 122.5,129C 121.167,129.667 119.833,129.667 118.5,129C 114.947,123.385 111.28,117.885 107.5,112.5 Z"/></g>
<g><path style="opacity:1" fill="#c5dfe6" d="M 107.5,112.5 C 104.132,116.179 100.965,120.179 98,124.5C 97.5003,117.174 97.3337,109.841 97.5,102.5C 109.642,94.9259 121.642,87.0926 133.5,79C 134.167,78.3333 134.833,78.3333 135.5,79C 125.667,88.8333 115.833,98.6667 106,108.5C 105.7,110.066 106.2,111.399 107.5,112.5 Z"/></g>
</svg>
